<svg width="14" height="14" viewBox="0 0 14 14" fill="none" xmlns="http://www.w3.org/2000/svg">
<g clip-path="url(#clip0_94_361)">
<path d="M12.25 2.91675C12.25 3.88325 9.89949 4.66675 7 4.66675C4.10051 4.66675 1.75 3.88325 1.75 2.91675M12.25 2.91675C12.25 1.95025 9.89949 1.16675 7 1.16675C4.10051 1.16675 1.75 1.95025 1.75 2.91675M12.25 2.91675V11.0834C12.25 12.0517 9.91667 12.8334 7 12.8334C4.08333 12.8334 1.75 12.0517 1.75 11.0834V2.91675M12.25 7.00008C12.25 7.96841 9.91667 8.75008 7 8.75008C4.08333 8.75008 1.75 7.96841 1.75 7.00008" stroke="white" stroke-width="1.6" stroke-linecap="round" stroke-linejoin="round"/>
</g>
<defs>
<clipPath id="clip0_94_361">
<rect width="14" height="14" fill="white"/>
</clipPath>
</defs>
</svg>
